<svg width="42" height="18" viewBox="0 0 42 18" fill="none" xmlns="http://www.w3.org/2000/svg">
<mask id="mask0_77:994" style="mask-type:alpha" maskUnits="userSpaceOnUse" x="0" y="0" width="42" height="18">
<path d="M10.2522 0.599511C10.4288 0.789806 10.5688 1.01562 10.6642 1.26404C10.7596 1.51246 10.8084 1.77863 10.8079 2.04732C10.8075 2.31602 10.7577 2.58199 10.6614 2.83002C10.5652 3.07805 10.4244 3.3033 10.2471 3.49287L7.14121 6.81711H16.4969C17.0021 6.81711 17.4865 7.03259 17.8437 7.41615C18.2009 7.79971 18.4016 8.31993 18.4016 8.86237C18.4016 9.4048 18.2009 9.92502 17.8437 10.3086C17.4865 10.6921 17.0021 10.9076 16.4969 10.9076H7.12597L10.2242 14.2346C10.4114 14.4218 10.5615 14.6476 10.6656 14.8985C10.7697 15.1494 10.8256 15.4202 10.8301 15.6948C10.8347 15.9695 10.7876 16.2422 10.6918 16.4969C10.596 16.7516 10.4534 16.9829 10.2726 17.1771C10.0917 17.3714 9.87628 17.5245 9.63911 17.6273C9.40195 17.7302 9.14792 17.7807 8.89218 17.7759C8.63644 17.771 8.38422 17.7109 8.15059 17.5991C7.91695 17.4873 7.70667 17.3262 7.5323 17.1252L1.18342 10.3077C1.00642 10.1177 0.866018 9.89222 0.770223 9.644C0.674428 9.39577 0.625122 9.1297 0.625122 8.861C0.625122 8.59231 0.674428 8.32624 0.770223 8.07801C0.866018 7.82979 1.00642 7.60426 1.18342 7.41432L7.5577 0.596784C7.73491 0.407083 7.9452 0.256738 8.17654 0.15434C8.40789 0.0519416 8.65576 -0.000502865 8.90598 3.634e-06C9.15621 0.000510133 9.40389 0.0539576 9.63488 0.157292C9.86586 0.260626 10.0756 0.411821 10.2522 0.602239V0.599511ZM31.6581 0.599511C32.0152 0.2165 32.4993 0.00136769 33.004 0.00136769C33.5088 0.00136769 33.9929 0.2165 34.35 0.599511L40.6989 7.41705C41.0556 7.80054 41.2559 8.32037 41.2559 8.86237C41.2559 9.40436 41.0556 9.9242 40.6989 10.3077L34.35 17.1252C34.1756 17.3262 33.9654 17.4873 33.7317 17.5991C33.4981 17.7109 33.2459 17.771 32.9901 17.7759C32.7344 17.7807 32.4804 17.7302 32.2432 17.6273C32.006 17.5245 31.7906 17.3714 31.6097 17.1771C31.4289 16.9829 31.2863 16.7516 31.1905 16.4969C31.0947 16.2422 31.0476 15.9695 31.0522 15.6948C31.0567 15.4202 31.1126 15.1494 31.2167 14.8985C31.3208 14.6476 31.4709 14.4218 31.6581 14.2346L34.7563 10.9076H25.3854C24.8802 10.9076 24.3958 10.6921 24.0386 10.3086C23.6814 9.92502 23.4807 9.4048 23.4807 8.86237C23.4807 8.31993 23.6814 7.79971 24.0386 7.41615C24.3958 7.03259 24.8802 6.81711 25.3854 6.81711H34.7563L31.6581 3.49015C31.3014 3.10666 31.101 2.58683 31.101 2.04483C31.101 1.50283 31.3014 0.982998 31.6581 0.599511Z" fill="black"/>
</mask>
<g mask="url(#mask0_77:994)">
<rect x="0.625122" y="-8.18103" width="17.7769" height="32.7242" fill="white"/>
</g>
</svg>
