<svg width="14" height="14" viewBox="0 0 14 14" fill="none" xmlns="http://www.w3.org/2000/svg">
<path d="M12.95 0H1.05C0.771523 0 0.504451 0.110625 0.307538 0.307538C0.110625 0.504451 0 0.771523 0 1.05V2.8C0 2.89283 0.036875 2.98185 0.102513 3.04749C0.16815 3.11313 0.257174 3.15 0.35 3.15C0.442826 3.15 0.53185 3.11313 0.597487 3.04749C0.663125 2.98185 0.7 2.89283 0.7 2.8V1.05C0.7 0.957174 0.736875 0.86815 0.802513 0.802513C0.86815 0.736875 0.957174 0.7 1.05 0.7H7.35V13.3H1.05C0.957174 13.3 0.86815 13.2631 0.802513 13.1975C0.736875 13.1318 0.7 13.0428 0.7 12.95V4.2C0.7 4.10717 0.663125 4.01815 0.597487 3.95251C0.53185 3.88687 0.442826 3.85 0.35 3.85C0.257174 3.85 0.16815 3.88687 0.102513 3.95251C0.036875 4.01815 0 4.10717 0 4.2V12.95C0 13.2285 0.110625 13.4955 0.307538 13.6925C0.504451 13.8894 0.771523 14 1.05 14H12.95C13.2285 14 13.4955 13.8894 13.6925 13.6925C13.8894 13.4955 14 13.2285 14 12.95V1.05C14 0.771523 13.8894 0.504451 13.6925 0.307538C13.4955 0.110625 13.2285 0 12.95 0ZM9.8 0.7H11.9V4.2L11.06 3.57C10.9994 3.52456 10.9257 3.5 10.85 3.5C10.7743 3.5 10.7006 3.52456 10.64 3.57L9.8 4.2V0.7ZM13.3 12.95C13.3 13.0428 13.2631 13.1318 13.1975 13.1975C13.1318 13.2631 13.0428 13.3 12.95 13.3H8.05V0.7H9.1V4.9C9.1 4.965 9.1181 5.02871 9.15227 5.08401C9.18644 5.1393 9.23534 5.18398 9.29348 5.21305C9.35161 5.24212 9.4167 5.25442 9.48143 5.24859C9.54617 5.24275 9.608 5.219 9.66 5.18L10.85 4.2875L12.04 5.18C12.0923 5.21894 12.1543 5.24252 12.2193 5.24809C12.2842 5.25365 12.3494 5.24098 12.4075 5.2115C12.4652 5.18241 12.5138 5.13792 12.5477 5.08293C12.5817 5.02795 12.5998 4.96463 12.6 4.9V0.7H12.95C13.0428 0.7 13.1318 0.736875 13.1975 0.802513C13.2631 0.86815 13.3 0.957174 13.3 1.05V12.95ZM1.75 7C1.75 6.90717 1.78687 6.81815 1.85251 6.75251C1.91815 6.68687 2.00717 6.65 2.1 6.65H5.95C6.04283 6.65 6.13185 6.68687 6.19749 6.75251C6.26313 6.81815 6.3 6.90717 6.3 7C6.3 7.09283 6.26313 7.18185 6.19749 7.24749C6.13185 7.31313 6.04283 7.35 5.95 7.35H2.1C2.00717 7.35 1.91815 7.31313 1.85251 7.24749C1.78687 7.18185 1.75 7.09283 1.75 7ZM1.75 4.9C1.75 4.80717 1.78687 4.71815 1.85251 4.65251C1.91815 4.58687 2.00717 4.55 2.1 4.55H5.95C6.04283 4.55 6.13185 4.58687 6.19749 4.65251C6.26313 4.71815 6.3 4.80717 6.3 4.9C6.3 4.99283 6.26313 5.08185 6.19749 5.14749C6.13185 5.21313 6.04283 5.25 5.95 5.25H2.1C2.00717 5.25 1.91815 5.21313 1.85251 5.14749C1.78687 5.08185 1.75 4.99283 1.75 4.9ZM1.75 2.8C1.75 2.70717 1.78687 2.61815 1.85251 2.55251C1.91815 2.48687 2.00717 2.45 2.1 2.45H5.95C6.04283 2.45 6.13185 2.48687 6.19749 2.55251C6.26313 2.61815 6.3 2.70717 6.3 2.8C6.3 2.89283 6.26313 2.98185 6.19749 3.04749C6.13185 3.11313 6.04283 3.15 5.95 3.15H2.1C2.00717 3.15 1.91815 3.11313 1.85251 3.04749C1.78687 2.98185 1.75 2.89283 1.75 2.8ZM1.75 9.1C1.75 9.00717 1.78687 8.91815 1.85251 8.85251C1.91815 8.78687 2.00717 8.75 2.1 8.75H4.2C4.29283 8.75 4.38185 8.78687 4.44749 8.85251C4.51313 8.91815 4.55 9.00717 4.55 9.1C4.55 9.19283 4.51313 9.28185 4.44749 9.34749C4.38185 9.41313 4.29283 9.45 4.2 9.45H2.1C2.00717 9.45 1.91815 9.41313 1.85251 9.34749C1.78687 9.28185 1.75 9.19283 1.75 9.1Z" fill="#505565"/>
</svg>
