<svg width="16" height="14" viewBox="0 0 16 14" fill="none" xmlns="http://www.w3.org/2000/svg">
<path d="M15.5789 0H0.421053C0.189474 0 0 0.189474 0 0.421053V10.5263C0 10.7579 0.189474 10.9474 0.421053 10.9474H3.78947V13.4737C3.78947 13.8737 4.27368 14.0211 4.50526 13.7684L7.36842 10.9474H15.5789C15.8105 10.9474 16 10.7579 16 10.5263V0.421053C16 0.189474 15.8105 0 15.5789 0ZM15.1579 10.1053H7.2C7.09474 10.1053 6.98947 10.1474 6.90526 10.2316L4.63158 12.4632V10.5263C4.63158 10.2947 4.44211 10.1053 4.21053 10.1053H0.842105V0.842105H15.1579V10.1053ZM8 4.21053C7.17895 4.21053 6.52632 4.86316 6.52632 5.68421C6.52632 6.50526 7.17895 7.1579 8 7.1579C8.82105 7.1579 9.47368 6.50526 9.47368 5.68421C9.47368 4.86316 8.82105 4.21053 8 4.21053ZM8 6.31579C7.64211 6.31579 7.36842 6.04211 7.36842 5.68421C7.36842 5.34737 7.64211 5.05263 8 5.05263C8.33684 5.05263 8.63158 5.34737 8.63158 5.68421C8.63158 6.04211 8.33684 6.31579 8 6.31579ZM12.2105 4.21053C11.3895 4.21053 10.7368 4.86316 10.7368 5.68421C10.7368 6.50526 11.3895 7.1579 12.2105 7.1579C13.0316 7.1579 13.6842 6.50526 13.6842 5.68421C13.6842 4.86316 13.0316 4.21053 12.2105 4.21053ZM12.2105 6.31579C11.8526 6.31579 11.5789 6.04211 11.5789 5.68421C11.5789 5.34737 11.8526 5.05263 12.2105 5.05263C12.5684 5.05263 12.8421 5.34737 12.8421 5.68421C12.8421 6.04211 12.5474 6.31579 12.2105 6.31579ZM3.78947 4.21053C2.96842 4.21053 2.31579 4.86316 2.31579 5.68421C2.31579 6.50526 2.96842 7.1579 3.78947 7.1579C4.61053 7.1579 5.26316 6.50526 5.26316 5.68421C5.26316 4.86316 4.61053 4.21053 3.78947 4.21053ZM3.78947 6.31579C3.45263 6.31579 3.15789 6.04211 3.15789 5.68421C3.15789 5.34737 3.45263 5.05263 3.78947 5.05263C4.14737 5.05263 4.42105 5.34737 4.42105 5.68421C4.42105 6.04211 4.12632 6.31579 3.78947 6.31579Z" fill="#505565"/>
</svg>
