<svg width="16" height="16" viewBox="0 0 16 16" fill="none" xmlns="http://www.w3.org/2000/svg">
<path d="M5.72437 13.2176C5.72431 13.6261 5.562 14.0179 5.27312 14.3067C4.98424 14.5956 4.59246 14.7579 4.18393 14.758H2.15348C1.74495 14.7579 1.35316 14.5956 1.06429 14.3067C0.775411 14.0179 0.613096 13.6261 0.613037 13.2176V8.29844C0.613096 7.88991 0.775411 7.49812 1.06429 7.20925C1.35316 6.92037 1.74495 6.75805 2.15348 6.758H4.18393C4.59246 6.75805 4.98424 6.92037 5.27312 7.20925C5.562 7.49812 5.72431 7.88991 5.72437 8.29844V13.2176ZM4.83548 8.29844C4.83548 8.21288 4.81863 8.12815 4.78588 8.0491C4.75314 7.97005 4.70515 7.89822 4.64465 7.83772C4.58414 7.77722 4.51232 7.72923 4.43326 7.69648C4.35421 7.66374 4.26949 7.64688 4.18393 7.64688H2.15348C2.06792 7.64688 1.98319 7.66374 1.90414 7.69648C1.82509 7.72923 1.75326 7.77722 1.69276 7.83772C1.63226 7.89822 1.58427 7.97005 1.55152 8.0491C1.51878 8.12815 1.50193 8.21288 1.50193 8.29844V13.2178C1.50193 13.3906 1.57057 13.5563 1.69276 13.6785C1.75326 13.739 1.82509 13.787 1.90414 13.8197C1.98319 13.8525 2.06792 13.8693 2.15348 13.8693H4.18393C4.35673 13.8693 4.52245 13.8007 4.64465 13.6785C4.76684 13.5563 4.83548 13.3906 4.83548 13.2178V8.29844Z" fill="#505565"/>
<path d="M3.50217 12.8136C3.50217 12.9167 3.4612 13.0156 3.38827 13.0886C3.31534 13.1615 3.21642 13.2025 3.11328 13.2025H3.00217C2.89903 13.2025 2.80011 13.1615 2.72718 13.0886C2.65425 13.0156 2.61328 12.9167 2.61328 12.8136V12.7025C2.61328 12.4876 2.7875 12.3136 3.00217 12.3136H3.11328C3.32795 12.3136 3.50217 12.4876 3.50217 12.7025V12.8136ZM9.07439 14.7658C7.96839 14.7658 6.78039 14.6254 6.3775 12.9491C6.3695 12.9154 6.39106 12.8802 6.39106 12.8454V7.22802C6.39106 7.16602 6.37839 7.10447 6.40373 7.0478L6.47884 6.84891C6.60284 6.46514 6.96395 5.88025 7.54706 4.97447C7.94573 4.35491 8.35506 3.71402 8.48239 3.3918C8.69906 2.84358 8.69817 2.10447 8.68017 1.86625C8.67382 1.78418 8.6904 1.70196 8.72808 1.62878C8.76575 1.55559 8.82302 1.49432 8.8935 1.4518C8.93061 1.42936 9.26795 1.23402 9.70417 1.23402C9.98217 1.23402 10.2386 1.31114 10.4668 1.46269C11.0848 1.87358 11.7771 2.51558 11.6408 3.84402C11.5984 4.26291 11.4228 4.6558 11.2533 5.03602C11.1419 5.2858 11.0368 5.5218 10.9779 5.74469C10.9659 5.79002 10.9646 5.91314 10.9639 6.01625C11.4486 6.05802 11.9364 6.09491 12.3753 6.09491C12.6519 6.09491 12.8771 6.09269 13.0588 6.09069C13.2942 6.08825 13.4575 6.08691 13.5722 6.09114C13.6559 6.09291 13.7346 6.09558 13.8071 6.10514C14.0442 6.13613 14.2728 6.21383 14.4797 6.33376C14.6866 6.45368 14.8676 6.61345 15.0124 6.8038C15.1581 6.99341 15.2649 7.21004 15.3263 7.44115C15.3878 7.67227 15.4029 7.91328 15.3706 8.15025C15.3079 8.61859 15.0656 9.0442 14.6948 9.33714C14.858 9.6375 14.9215 9.98191 14.8762 10.3207C14.8258 10.7106 14.6335 11.0682 14.3362 11.3254C14.3362 11.3309 14.3365 11.3365 14.3371 11.342C14.4595 11.6284 14.4839 11.9472 14.4065 12.249C14.3291 12.5507 14.1542 12.8184 13.9091 13.0105C13.9855 13.1971 14.0108 13.4054 13.9817 13.6218C13.9226 14.0631 13.6093 14.4356 13.1777 14.5825C12.9166 14.7142 12.5868 14.7418 12.1473 14.7418C11.9991 14.7418 11.8337 14.7387 11.6502 14.7354C11.4264 14.7311 11.1744 14.7265 10.8915 14.7265C10.5388 14.7265 10.2073 14.7374 9.88662 14.7478C9.59884 14.7571 9.32795 14.7658 9.07439 14.7658ZM7.27995 12.7911C7.50217 13.7247 8.00128 13.8771 9.09995 13.8771C9.34461 13.8771 9.59284 13.8687 9.87017 13.8596C10.1984 13.8489 10.5308 13.8378 10.8979 13.8378C11.1871 13.8378 11.4411 13.8425 11.6697 13.8469C11.8475 13.8502 12.0057 13.8531 12.1488 13.8531C12.2771 13.8531 12.6668 13.8531 12.7835 13.786C12.8135 13.7689 12.8448 13.7551 12.8779 13.7454C12.9737 13.7171 13.0842 13.6296 13.1008 13.5038C13.1077 13.452 13.1082 13.3778 13.0713 13.3171C12.9757 13.1609 12.9502 12.95 13.0019 12.752C13.0479 12.5767 13.1499 12.4371 13.2897 12.3589C13.3616 12.3192 13.4233 12.2632 13.4696 12.1954C13.516 12.1276 13.5458 12.0499 13.5566 11.9685C13.57 11.8718 13.556 11.7733 13.5162 11.6842C13.4151 11.4614 13.3897 10.9245 13.7022 10.6945C13.7818 10.6369 13.8488 10.5637 13.8991 10.4793C13.9494 10.3948 13.9819 10.301 13.9946 10.2036C14.0177 10.0308 13.9778 9.85553 13.8822 9.7098C13.6866 9.41158 13.7939 8.88136 14.0906 8.67825C14.2465 8.5722 14.3665 8.42129 14.4347 8.24551C14.5029 8.06974 14.5161 7.87739 14.4725 7.69395C14.429 7.51051 14.3307 7.34463 14.1908 7.21829C14.0508 7.09195 13.8758 7.0111 13.6888 6.98647C13.6495 6.98169 13.61 6.97954 13.5704 6.98002L13.5388 6.9798C13.4348 6.97558 13.2804 6.97736 13.0675 6.9798C12.8833 6.98158 12.6555 6.98402 12.3751 6.98402C11.8102 6.98402 11.1942 6.92936 10.5984 6.87669L10.4635 6.86469C10.4045 6.85946 10.3472 6.8425 10.2949 6.81482C10.2425 6.78713 10.1963 6.74928 10.1588 6.70347C10.1213 6.65767 10.0933 6.60483 10.0765 6.54807C10.0596 6.49131 10.0543 6.43176 10.0608 6.37291C10.0735 6.26069 10.0742 6.13958 10.0748 6.02247C10.0762 5.84291 10.0773 5.6738 10.1184 5.5178C10.1957 5.22536 10.3204 4.94514 10.4413 4.67402C10.5886 4.34336 10.7279 4.03091 10.7562 3.75336C10.8475 2.86269 10.4199 2.49891 9.97417 2.20247C9.85706 2.12491 9.70462 2.1098 9.5735 2.1358C9.57062 2.51714 9.52773 3.15691 9.3055 3.71869C9.14573 4.1218 8.72906 4.76958 8.28773 5.45536C7.88973 6.07336 7.39461 6.84291 7.30861 7.13225C7.30328 7.15025 7.32217 7.16802 7.31439 7.18536L7.27995 7.32225V12.7911Z" fill="#505565"/>
<path d="M11.0429 13.2024H11.0387C11.0133 13.2024 10.9905 13.2435 10.9696 13.24C10.8485 13.238 10.7511 13.1613 10.7511 13.0398C10.7511 12.9169 10.8505 12.8284 10.9733 12.8284C11.0458 12.8284 11.266 12.8338 11.2705 13.0522C11.2711 13.0838 11.264 13.0729 11.2505 13.1002C11.2187 13.1842 11.1376 13.2024 11.0429 13.2024ZM9.41734 13.3544C8.87757 13.3544 8.41512 13.2467 7.98801 12.7547C7.96782 12.7328 7.95224 12.7071 7.94217 12.6791C7.93211 12.6511 7.92777 12.6213 7.92942 12.5916C7.93107 12.5619 7.93866 12.5328 7.95176 12.5061C7.96486 12.4794 7.9832 12.4556 8.00567 12.4361C8.02815 12.4166 8.05432 12.4018 8.08262 12.3926C8.11093 12.3834 8.14079 12.38 8.17043 12.3825C8.20008 12.3851 8.22892 12.3936 8.25522 12.4075C8.28152 12.4214 8.30477 12.4405 8.32357 12.4635C8.76245 12.9687 9.20757 12.9378 10.0156 12.8811C10.1178 12.874 10.2242 12.8667 10.3356 12.86C10.3943 12.8571 10.4518 12.8773 10.4958 12.9163C10.5397 12.9553 10.5666 13.01 10.5707 13.0687C10.5741 13.1275 10.5541 13.1853 10.515 13.2293C10.4758 13.2733 10.4208 13.3 10.362 13.3035C10.2525 13.31 10.1473 13.3175 10.0465 13.3244C9.82512 13.3398 9.61579 13.3544 9.41734 13.3544Z" fill="#505565"/>
</svg>
