<svg width="16" height="16" viewBox="0 0 16 16" fill="none" xmlns="http://www.w3.org/2000/svg">
<path d="M12.5 10C12.1224 10.0028 11.7504 10.091 11.4118 10.2582C11.0732 10.4253 10.7768 10.667 10.545 10.965L5.905 8.645C5.96469 8.43507 5.99662 8.21823 6 8C5.99662 7.78178 5.96469 7.56493 5.905 7.355L10.545 5.035C10.7768 5.33305 11.0732 5.57471 11.4118 5.74184C11.7504 5.90897 12.1224 5.99723 12.5 6C12.9945 6 13.4778 5.85338 13.8889 5.57867C14.3 5.30397 14.6205 4.91352 14.8097 4.45671C14.9989 3.99989 15.0484 3.49723 14.952 3.01228C14.8555 2.52732 14.6174 2.08187 14.2678 1.73223C13.9181 1.3826 13.4727 1.1445 12.9877 1.04804C12.5028 0.951575 12.0001 1.00108 11.5433 1.1903C11.0865 1.37952 10.696 1.69995 10.4213 2.11108C10.1466 2.5222 10 3.00555 10 3.5C10.0034 3.71823 10.0353 3.93507 10.095 4.145L5.455 6.465C5.22317 6.16695 4.92683 5.92529 4.58824 5.75816C4.24964 5.59103 3.87759 5.50277 3.5 5.5C2.83696 5.5 2.20107 5.76339 1.73223 6.23223C1.26339 6.70108 1 7.33696 1 8C1 8.66304 1.26339 9.29893 1.73223 9.76777C2.20107 10.2366 2.83696 10.5 3.5 10.5C3.87759 10.4972 4.24964 10.409 4.58824 10.2418C4.92683 10.0747 5.22317 9.83305 5.455 9.535L10.095 11.855C9.96015 12.36 9.98698 12.8946 10.1717 13.3836C10.3565 13.8725 10.6898 14.2913 11.1249 14.581C11.56 14.8707 12.075 15.0167 12.5974 14.9985C13.1198 14.9803 13.6233 14.7988 14.0372 14.4795C14.4511 14.1603 14.7545 13.7194 14.9048 13.2187C15.0551 12.7181 15.0447 12.1829 14.875 11.6885C14.7053 11.1941 14.385 10.7653 13.959 10.4624C13.5329 10.1596 13.0227 9.99783 12.5 10ZM12.5 2C12.7967 2 13.0867 2.08797 13.3334 2.2528C13.58 2.41762 13.7723 2.65189 13.8858 2.92598C13.9994 3.20007 14.0291 3.50167 13.9712 3.79264C13.9133 4.08361 13.7704 4.35088 13.5607 4.56066C13.3509 4.77044 13.0836 4.9133 12.7926 4.97118C12.5017 5.02906 12.2001 4.99935 11.926 4.88582C11.6519 4.77229 11.4176 4.58003 11.2528 4.33336C11.088 4.08668 11 3.79667 11 3.5C11 3.10218 11.158 2.72065 11.4393 2.43934C11.7206 2.15804 12.1022 2 12.5 2ZM3.5 9.5C3.20333 9.5 2.91332 9.41203 2.66664 9.24721C2.41997 9.08238 2.22771 8.84812 2.11418 8.57403C2.00065 8.29994 1.97094 7.99834 2.02882 7.70737C2.0867 7.41639 2.22956 7.14912 2.43934 6.93934C2.64912 6.72956 2.91639 6.5867 3.20736 6.52882C3.49834 6.47094 3.79994 6.50065 4.07403 6.61418C4.34811 6.72771 4.58238 6.91997 4.7472 7.16665C4.91203 7.41332 5 7.70333 5 8C5 8.39783 4.84196 8.77936 4.56066 9.06066C4.27936 9.34197 3.89782 9.5 3.5 9.5ZM12.5 14C12.2033 14 11.9133 13.912 11.6666 13.7472C11.42 13.5824 11.2277 13.3481 11.1142 13.074C11.0006 12.7999 10.9709 12.4983 11.0288 12.2074C11.0867 11.9164 11.2296 11.6491 11.4393 11.4393C11.6491 11.2296 11.9164 11.0867 12.2074 11.0288C12.4983 10.9709 12.7999 11.0007 13.074 11.1142C13.3481 11.2277 13.5824 11.42 13.7472 11.6666C13.912 11.9133 14 12.2033 14 12.5C14 12.8978 13.842 13.2794 13.5607 13.5607C13.2794 13.842 12.8978 14 12.5 14Z" fill="#505565"/>
</svg>
