<svg width="4" height="13" viewBox="0 0 4 13" fill="none" xmlns="http://www.w3.org/2000/svg">
<path d="M3.49998 1.56847C3.5045 1.76823 3.46906 1.96687 3.39575 2.15274C3.32244 2.33861 3.21274 2.50797 3.07308 2.65085C2.93342 2.79374 2.76662 2.90729 2.58247 2.98483C2.39833 3.06237 2.20055 3.10234 2.00074 3.10239C1.80094 3.10244 1.60313 3.06257 1.41895 2.98512C1.23476 2.90767 1.06791 2.79421 0.928177 2.65139C0.788446 2.50857 0.678656 2.33927 0.605254 2.15344C0.531851 1.96761 0.496316 1.76898 0.500733 1.56922C0.5094 1.1773 0.671151 0.804349 0.951362 0.530197C1.23157 0.256046 1.60797 0.102485 1.99999 0.102387C2.39201 0.102288 2.76849 0.255661 3.04883 0.529673C3.32918 0.803684 3.49112 1.17656 3.49998 1.56847V1.56847ZM3.49998 6.06847C3.5045 6.26823 3.46906 6.46687 3.39575 6.65274C3.32244 6.83861 3.21274 7.00797 3.07308 7.15085C2.93342 7.29374 2.76662 7.40729 2.58247 7.48483C2.39833 7.56237 2.20055 7.60234 2.00074 7.60239C1.80094 7.60244 1.60313 7.56257 1.41895 7.48512C1.23476 7.40767 1.06791 7.29421 0.928177 7.15139C0.788446 7.00857 0.678656 6.83927 0.605254 6.65344C0.531851 6.46761 0.496316 6.26898 0.500733 6.06923C0.5094 5.6773 0.671151 5.30435 0.951362 5.0302C1.23157 4.75605 1.60797 4.60248 1.99999 4.60239C2.39201 4.60229 2.76849 4.75566 3.04883 5.02967C3.32918 5.30368 3.49112 5.67656 3.49998 6.06847V6.06847ZM3.49998 10.5685C3.5045 10.7682 3.46906 10.9669 3.39575 11.1527C3.32244 11.3386 3.21274 11.508 3.07308 11.6509C2.93342 11.7937 2.76662 11.9073 2.58247 11.9848C2.39833 12.0624 2.20055 12.1023 2.00074 12.1024C1.80094 12.1024 1.60313 12.0626 1.41895 11.9851C1.23476 11.9077 1.06791 11.7942 0.928177 11.6514C0.788446 11.5086 0.678656 11.3393 0.605254 11.1534C0.531851 10.9676 0.496316 10.769 0.500733 10.5692C0.5094 10.1773 0.671151 9.80435 0.951362 9.5302C1.23157 9.25605 1.60797 9.10248 1.99999 9.10239C2.39201 9.10229 2.76849 9.25566 3.04883 9.52967C3.32918 9.80368 3.49112 10.1766 3.49998 10.5685V10.5685Z" fill="#505565"/>
</svg>
