<svg width="9" height="9" viewBox="0 0 9 9" fill="none" xmlns="http://www.w3.org/2000/svg">
<path d="M8.66309 7.15454L5.22681 1.21735C5.14444 1.07507 5.0261 0.956959 4.88368 0.874847C4.74126 0.792735 4.57975 0.749512 4.41535 0.749512C4.25095 0.749512 4.08944 0.792735 3.94702 0.874847C3.80459 0.956959 3.68626 1.07507 3.60389 1.21735H3.60419L0.167606 7.15454C0.0850315 7.29701 0.0414537 7.45873 0.0412604 7.6234C0.0410671 7.78807 0.0842652 7.94989 0.166505 8.09255C0.248744 8.23522 0.367122 8.3537 0.509717 8.43606C0.652312 8.51842 0.814091 8.56176 0.978763 8.56171H7.85193C8.0166 8.56176 8.17838 8.51842 8.32098 8.43606C8.46357 8.3537 8.58195 8.23522 8.66419 8.09255C8.74643 7.94989 8.78963 7.78807 8.78943 7.6234C8.78924 7.45873 8.74566 7.29701 8.66309 7.15454Z" fill="white"/>
</svg>
