<svg width="16" height="16" viewBox="0 0 16 16" fill="none" xmlns="http://www.w3.org/2000/svg">
<path d="M15.619 1.11628H12.6171C12.4476 0.476279 11.8514 0 11.1429 0C10.9333 0 10.7619 0.167442 10.7619 0.372093C10.7619 0.576744 10.9333 0.744186 11.1429 0.744186C11.5638 0.744186 11.9048 1.07721 11.9048 1.48837C11.9048 1.89953 11.5638 2.23256 11.1429 2.23256C10.9333 2.23256 10.7619 2.4 10.7619 2.60465C10.7619 2.8093 10.9333 2.97674 11.1429 2.97674C11.8514 2.97674 12.4476 2.50047 12.6171 1.86047H15.2381V4.09302H11.8095H8H4.19048H0.761905V1.86047H4.57143C4.78095 1.86047 4.95238 1.69302 4.95238 1.48837C4.95238 1.28372 4.78095 1.11628 4.57143 1.11628H4.2019C4.33333 0.894884 4.57714 0.744186 4.85714 0.744186C5.2781 0.744186 5.61905 1.07721 5.61905 1.48837C5.61905 1.89953 5.2781 2.23256 4.85714 2.23256C4.64762 2.23256 4.47619 2.4 4.47619 2.60465C4.47619 2.8093 4.64762 2.97674 4.85714 2.97674C5.69714 2.97674 6.38095 2.30884 6.38095 1.48837C6.38095 0.667907 5.69714 0 4.85714 0C4.14857 0 3.55238 0.476279 3.38286 1.11628H0.380952C0.171429 1.11628 0 1.28372 0 1.48837V4.46512V8.18605V11.907V15.6279C0 15.8326 0.171429 16 0.380952 16H4.19048H8H11.8095H15.619C15.8286 16 16 15.8326 16 15.6279V11.907V8.18605V4.46512V1.48837C16 1.28372 15.8286 1.11628 15.619 1.11628ZM0.761905 8.55814H3.80952V11.5349H0.761905V8.55814ZM4.57143 8.55814H7.61905V11.5349H4.57143V8.55814ZM8.38095 8.55814H11.4286V11.5349H8.38095V8.55814ZM12.1905 8.55814H15.2381V11.5349H12.1905V8.55814ZM15.2381 7.81395H12.1905V4.83721H15.2381V7.81395ZM11.4286 7.81395H8.38095V4.83721H11.4286V7.81395ZM7.61905 7.81395H4.57143V4.83721H7.61905V7.81395ZM3.80952 4.83721V7.81395H0.761905V4.83721H3.80952ZM0.761905 12.2791H3.80952V15.2558H0.761905V12.2791ZM4.57143 12.2791H7.61905V15.2558H4.57143V12.2791ZM8.38095 12.2791H11.4286V15.2558H8.38095V12.2791ZM15.2381 15.2558H12.1905V12.2791H15.2381V15.2558ZM7.71429 1.48837C7.71429 1.07721 7.37333 0.744186 6.95238 0.744186C6.74286 0.744186 6.57143 0.576744 6.57143 0.372093C6.57143 0.167442 6.74286 0 6.95238 0C7.79238 0 8.47619 0.667907 8.47619 1.48837C8.47619 2.30884 7.79238 2.97674 6.95238 2.97674C6.74286 2.97674 6.57143 2.8093 6.57143 2.60465C6.57143 2.4 6.74286 2.23256 6.95238 2.23256C7.37333 2.23256 7.71429 1.89953 7.71429 1.48837ZM9.80952 1.48837C9.80952 1.07721 9.46857 0.744186 9.04762 0.744186C8.8381 0.744186 8.66667 0.576744 8.66667 0.372093C8.66667 0.167442 8.8381 0 9.04762 0C9.88762 0 10.5714 0.667907 10.5714 1.48837C10.5714 2.30884 9.88762 2.97674 9.04762 2.97674C8.8381 2.97674 8.66667 2.8093 8.66667 2.60465C8.66667 2.4 8.8381 2.23256 9.04762 2.23256C9.46857 2.23256 9.80952 1.89953 9.80952 1.48837ZM10.7448 9.7507L10.4438 10.0465L10.7467 10.3423C10.8952 10.4874 10.8952 10.7237 10.7467 10.8688C10.6705 10.9395 10.5733 10.9767 10.4762 10.9767C10.379 10.9767 10.2819 10.9395 10.2076 10.867L9.90476 10.573L9.6019 10.8688C9.52762 10.9395 9.43048 10.9767 9.33333 10.9767C9.23619 10.9767 9.13905 10.9395 9.06476 10.867C8.91619 10.7219 8.91619 10.4856 9.06476 10.3405L9.36571 10.0465L9.06286 9.7507C8.91429 9.60558 8.91429 9.3693 9.06286 9.22419C9.21143 9.07907 9.45333 9.07907 9.6019 9.22419L9.90476 9.52L10.2076 9.22419C10.3562 9.07907 10.5981 9.07907 10.7467 9.22419C10.8952 9.3693 10.8952 9.60558 10.7448 9.7507Z" fill="#B4B8C6"/>
</svg>
