<svg width="17" height="17" viewBox="0 0 17 17" fill="none" xmlns="http://www.w3.org/2000/svg">
<g clip-path="url(#clip0)">
<path d="M5.90186 13.3753C5.9018 13.7839 5.73949 14.1756 5.45061 14.4645C5.16173 14.7534 4.76995 14.9157 4.36142 14.9158H2.33097C1.92244 14.9157 1.53065 14.7534 1.24178 14.4645C0.952901 14.1756 0.790586 13.7839 0.790527 13.3753V8.45622C0.790586 8.04768 0.952901 7.6559 1.24178 7.36702C1.53065 7.07815 1.92244 6.91583 2.33097 6.91577H4.36142C4.76995 6.91583 5.16173 7.07815 5.45061 7.36702C5.73949 7.6559 5.9018 8.04768 5.90186 8.45622V13.3753ZM5.01297 8.45622C5.01297 8.37065 4.99612 8.28593 4.96337 8.20688C4.93063 8.12783 4.88264 8.056 4.82214 7.9955C4.76163 7.93499 4.68981 7.887 4.61076 7.85426C4.5317 7.82151 4.44698 7.80466 4.36142 7.80466H2.33097C2.24541 7.80466 2.16068 7.82151 2.08163 7.85426C2.00258 7.887 1.93075 7.93499 1.87025 7.9955C1.80975 8.056 1.76176 8.12783 1.72901 8.20688C1.69627 8.28593 1.67942 8.37065 1.67942 8.45622V13.3756C1.67942 13.5484 1.74806 13.7141 1.87025 13.8363C1.93075 13.8968 2.00258 13.9448 2.08163 13.9775C2.16068 14.0103 2.24541 14.0271 2.33097 14.0271H4.36142C4.53422 14.0271 4.69994 13.9585 4.82214 13.8363C4.94433 13.7141 5.01297 13.5484 5.01297 13.3756V8.45622Z" fill="white"/>
<path d="M3.67966 12.9714C3.67966 13.0745 3.63869 13.1735 3.56576 13.2464C3.49283 13.3193 3.39391 13.3603 3.29077 13.3603H3.17966C3.07652 13.3603 2.97761 13.3193 2.90467 13.2464C2.83174 13.1735 2.79077 13.0745 2.79077 12.9714V12.8603C2.79077 12.6454 2.96499 12.4714 3.17966 12.4714H3.29077C3.50544 12.4714 3.67966 12.6454 3.67966 12.8603V12.9714ZM9.25188 14.9236C8.14588 14.9236 6.95788 14.7832 6.55499 13.107C6.54699 13.0732 6.56855 13.0381 6.56855 13.0032V7.38585C6.56855 7.32385 6.55588 7.26229 6.58122 7.20562L6.65633 7.00673C6.78033 6.62296 7.14144 6.03807 7.72455 5.13229C8.12322 4.51273 8.53255 3.87185 8.65988 3.54962C8.87655 3.0014 8.87566 2.26229 8.85766 2.02407C8.85131 1.942 8.8679 1.85978 8.90557 1.7866C8.94324 1.71341 9.00051 1.65214 9.07099 1.60962C9.10811 1.58718 9.44544 1.39185 9.88166 1.39185C10.1597 1.39185 10.4161 1.46896 10.6443 1.62051C11.2623 2.0314 11.9545 2.6734 11.8183 4.00185C11.7759 4.42074 11.6003 4.81362 11.4308 5.19385C11.3194 5.44362 11.2143 5.67962 11.1554 5.90251C11.1434 5.94785 11.1421 6.07096 11.1414 6.17407C11.6261 6.21585 12.1139 6.25274 12.5528 6.25274C12.8294 6.25274 13.0545 6.25051 13.2363 6.24851C13.4717 6.24607 13.635 6.24474 13.7497 6.24896C13.8334 6.25073 13.9121 6.2534 13.9846 6.26296C14.2217 6.29395 14.4503 6.37165 14.6572 6.49158C14.8641 6.6115 15.0451 6.77127 15.1899 6.96162C15.3356 7.15123 15.4423 7.36786 15.5038 7.59897C15.5653 7.83009 15.5804 8.0711 15.5481 8.30807C15.4854 8.77641 15.2431 9.20202 14.8723 9.49496C15.0354 9.79532 15.0989 10.1397 15.0537 10.4785C15.0033 10.8684 14.811 11.2261 14.5137 11.4832C14.5137 11.4887 14.514 11.4943 14.5145 11.4998C14.637 11.7863 14.6614 12.1051 14.584 12.4068C14.5066 12.7085 14.3317 12.9762 14.0866 13.1683C14.163 13.355 14.1883 13.5632 14.1592 13.7796C14.1001 14.221 13.7868 14.5934 13.3552 14.7403C13.0941 14.8721 12.7643 14.8996 12.3248 14.8996C12.1765 14.8996 12.0112 14.8965 11.8277 14.8932C11.6039 14.889 11.3519 14.8843 11.069 14.8843C10.7163 14.8843 10.3848 14.8952 10.0641 14.9056C9.77633 14.915 9.50544 14.9236 9.25188 14.9236ZM7.45744 12.949C7.67966 13.8825 8.17877 14.035 9.27744 14.035C9.52211 14.035 9.77033 14.0265 10.0477 14.0174C10.3759 14.0067 10.7083 13.9956 11.0754 13.9956C11.3645 13.9956 11.6185 14.0003 11.8472 14.0047C12.025 14.0081 12.1832 14.011 12.3263 14.011C12.4545 14.011 12.8443 14.011 12.961 13.9438C12.991 13.9267 13.0223 13.913 13.0554 13.9032C13.1512 13.875 13.2617 13.7874 13.2783 13.6616C13.2852 13.6098 13.2857 13.5356 13.2488 13.475C13.1532 13.3187 13.1277 13.1078 13.1794 12.9098C13.2254 12.7345 13.3274 12.595 13.4672 12.5167C13.5391 12.4771 13.6008 12.4211 13.6471 12.3533C13.6935 12.2854 13.7233 12.2077 13.7341 12.1263C13.7475 12.0296 13.7335 11.9312 13.6937 11.8421C13.5926 11.6192 13.5672 11.0823 13.8797 10.8523C13.9593 10.7947 14.0263 10.7215 14.0766 10.6371C14.1269 10.5527 14.1594 10.4588 14.1721 10.3614C14.1952 10.1886 14.1553 10.0134 14.0597 9.86762C13.8641 9.5694 13.9714 9.03918 14.2681 8.83607C14.424 8.73002 14.544 8.57911 14.6122 8.40333C14.6804 8.22756 14.6936 8.03521 14.65 7.85177C14.6065 7.66833 14.5082 7.50245 14.3682 7.37611C14.2283 7.24977 14.0533 7.16892 13.8663 7.14429C13.827 7.13951 13.7875 7.13736 13.7479 7.13785L13.7163 7.13762C13.6123 7.1334 13.4579 7.13518 13.245 7.13762C13.0608 7.1394 12.833 7.14185 12.5526 7.14185C11.9877 7.14185 11.3717 7.08718 10.7759 7.03451L10.641 7.02251C10.582 7.01728 10.5247 7.00032 10.4724 6.97264C10.42 6.94495 10.3738 6.9071 10.3363 6.86129C10.2987 6.81549 10.2708 6.76265 10.254 6.70589C10.2371 6.64913 10.2318 6.58958 10.2383 6.53074C10.251 6.41851 10.2517 6.2974 10.2523 6.18029C10.2537 6.00073 10.2548 5.83162 10.2959 5.67562C10.3732 5.38318 10.4979 5.10296 10.6188 4.83185C10.7661 4.50118 10.9054 4.18873 10.9337 3.91118C11.025 3.02051 10.5974 2.65673 10.1517 2.36029C10.0345 2.28273 9.88211 2.26762 9.75099 2.29362C9.74811 2.67496 9.70522 3.31473 9.48299 3.87651C9.32322 4.27962 8.90655 4.9274 8.46522 5.61318C8.06722 6.23118 7.5721 7.00074 7.4861 7.29007C7.48077 7.30807 7.49966 7.32585 7.49188 7.34318L7.45744 7.48007V12.949Z" fill="white"/>
<path d="M11.2203 13.36H11.2161C11.1908 13.36 11.1679 13.4011 11.147 13.3976C11.0259 13.3956 10.9286 13.3189 10.9286 13.1974C10.9286 13.0745 11.0279 12.986 11.1508 12.986C11.2232 12.986 11.4434 12.9914 11.4479 13.2098C11.4485 13.2414 11.4414 13.2305 11.4279 13.2578C11.3961 13.3418 11.315 13.36 11.2203 13.36ZM9.59477 13.512C9.05499 13.512 8.59255 13.4043 8.16544 12.9123C8.14525 12.8904 8.12967 12.8647 8.1196 12.8367C8.10954 12.8087 8.1052 12.7789 8.10685 12.7492C8.10849 12.7195 8.11609 12.6904 8.12919 12.6637C8.14229 12.637 8.16062 12.6132 8.1831 12.5937C8.20558 12.5742 8.23175 12.5594 8.26005 12.5502C8.28835 12.541 8.31822 12.5376 8.34786 12.5401C8.37751 12.5427 8.40634 12.5512 8.43265 12.5651C8.45895 12.579 8.4822 12.5981 8.501 12.6211C8.93988 13.1263 9.38499 13.0954 10.193 13.0387C10.2952 13.0316 10.4017 13.0243 10.513 13.0176C10.5717 13.0147 10.6292 13.0349 10.6732 13.0739C10.7171 13.1129 10.744 13.1676 10.7481 13.2263C10.7516 13.2851 10.7315 13.3429 10.6924 13.3869C10.6533 13.431 10.5983 13.4577 10.5394 13.4611C10.4299 13.4676 10.3248 13.4751 10.2239 13.482C10.0026 13.4974 9.79322 13.512 9.59477 13.512Z" fill="white"/>
</g>
<defs>
<clipPath id="clip0">
<rect width="16" height="16" fill="white" transform="translate(0.177429 0.157715)"/>
</clipPath>
</defs>
</svg>
