<svg width="17" height="17" viewBox="0 0 17 17" fill="none" xmlns="http://www.w3.org/2000/svg">
<path d="M7.26648 14.5392C8.86269 14.5389 10.4129 13.9989 11.6703 13.0053L15.6235 17L16.8951 15.7151L12.9419 11.7204C13.9257 10.4498 14.4604 8.88296 14.4608 7.26962C14.4608 3.26133 11.2332 0 7.26648 0C3.29974 0 0.0722046 3.26133 0.0722046 7.26962C0.0722046 11.2779 3.29974 14.5392 7.26648 14.5392ZM7.26648 1.8174C10.2422 1.8174 12.6622 4.26272 12.6622 7.26962C12.6622 10.2765 10.2422 12.7218 7.26648 12.7218C4.29075 12.7218 1.87077 10.2765 1.87077 7.26962C1.87077 4.26272 4.29075 1.8174 7.26648 1.8174Z" fill="#B4B8C6"/>
</svg>
