<svg width="13" height="9" viewBox="0 0 13 9" fill="none" xmlns="http://www.w3.org/2000/svg">
<path d="M12.3307 0.500001L1.13033 0.5C1.01693 0.500306 0.90578 0.527161 0.808834 0.577674C0.711889 0.628187 0.632824 0.700446 0.580148 0.786672C0.527473 0.8729 0.503183 0.96983 0.509893 1.06703C0.516603 1.16423 0.554058 1.25801 0.618227 1.3383L6.21839 8.28401C6.45048 8.57199 7.00925 8.57199 7.24197 8.28401L12.8421 1.3383C12.907 1.25818 12.945 1.16435 12.952 1.06699C12.9591 0.969627 12.935 0.872464 12.8823 0.786054C12.8295 0.699645 12.7502 0.627293 12.653 0.576861C12.5557 0.52643 12.4443 0.499847 12.3307 0.500001Z" fill="white"/>
</svg>
