<svg width="15" height="13" viewBox="0 0 15 13" fill="none" xmlns="http://www.w3.org/2000/svg">
<path d="M5.76472 1.5545C5.15196 1.55493 4.54942 1.71146 4.01394 2.00933C3.47846 2.30721 3.0277 2.7366 2.70419 3.25699C2.38068 3.77739 2.19509 4.37162 2.16493 4.98363C2.13476 5.59564 2.26103 6.20525 2.5318 6.75493C2.55103 6.79413 2.57959 6.82802 2.61496 6.85361C2.65033 6.87921 2.69144 6.89574 2.73469 6.90176H2.77207C2.80867 6.90164 2.84486 6.894 2.87839 6.8793C2.91191 6.86461 2.94206 6.84317 2.96695 6.81633C3.25437 6.50251 3.60425 6.25228 3.99413 6.08171C4.384 5.91114 4.80524 5.824 5.23079 5.8259C5.68024 5.82387 6.12445 5.92238 6.5309 6.11422C6.57743 6.13652 6.62942 6.14486 6.68059 6.13822C6.73176 6.13159 6.77991 6.11027 6.81922 6.07685C7.42082 5.57036 8.18185 5.29242 8.96827 5.29198H9.06437C9.10268 5.29697 9.14161 5.29358 9.17849 5.28206C9.21536 5.27054 9.24929 5.25115 9.27794 5.22524C9.30642 5.20022 9.32924 5.16942 9.34489 5.1349C9.36054 5.10038 9.36866 5.06292 9.36871 5.02501C9.3388 4.09093 8.94534 3.20544 8.27216 2.55718C7.59897 1.90893 6.69927 1.54915 5.76472 1.5545Z" fill="#F6C707"/>
<path d="M12.1104 6.35979C11.7682 5.88337 11.3216 5.49142 10.8048 5.21383C10.288 4.93624 9.71467 4.78033 9.12847 4.75801C9.07515 4.754 9.02161 4.754 8.96829 4.75801C8.11389 4.75654 7.28306 5.03817 6.60568 5.5589C6.16968 5.37944 5.70229 5.28869 5.23082 5.29194C4.74654 5.2928 4.26735 5.39083 3.82163 5.58021C3.37591 5.7696 2.97273 6.04649 2.63594 6.39449C1.87052 6.51057 1.1772 6.91154 0.694862 7.5171C0.212523 8.12266 -0.023225 8.8881 0.0348353 9.6601C0.0928956 10.4321 0.440477 11.1537 1.00796 11.6803C1.57545 12.2069 2.32094 12.4996 3.09512 12.4999C3.4436 12.5011 3.78961 12.4415 4.11759 12.3237C4.60249 12.4779 5.11431 12.5288 5.62008 12.4732C6.12586 12.4175 6.61437 12.2566 7.05417 12.0007C7.58063 12.2938 8.16743 12.4618 8.76921 12.4919C9.37098 12.522 9.97162 12.4133 10.5247 12.1742C10.9308 12.3748 11.3763 12.483 11.8291 12.4911C12.282 12.4992 12.731 12.407 13.1441 12.2211C13.5571 12.0352 13.9239 11.7602 14.2181 11.4158C14.5123 11.0715 14.7267 10.6663 14.8459 10.2293C14.9651 9.79231 14.9861 9.33437 14.9074 8.88832C14.8288 8.44226 14.6524 8.01914 14.3909 7.64929C14.1295 7.27943 13.7894 6.97201 13.3951 6.74907C13.0009 6.52613 12.5621 6.39319 12.1104 6.35979Z" fill="#1E85C5"/>
<path d="M2.97505 2.37144C2.93864 2.37166 2.90257 2.36443 2.86905 2.3502C2.83554 2.33597 2.80529 2.31503 2.78016 2.28868L2.40642 1.8909C2.36371 1.83865 2.34238 1.77216 2.34671 1.70481C2.35105 1.63747 2.38073 1.57426 2.42978 1.52791C2.47883 1.48156 2.54362 1.45551 2.61111 1.455C2.67859 1.45449 2.74376 1.47956 2.79351 1.52516L3.16993 1.92294C3.2052 1.96097 3.22863 2.00846 3.23735 2.05959C3.24607 2.11072 3.23971 2.16329 3.21904 2.21087C3.19836 2.25844 3.16428 2.29896 3.12095 2.32748C3.07762 2.35599 3.02692 2.37127 2.97505 2.37144ZM1.62689 5.52159H1.07427C1.00347 5.52159 0.935569 5.49347 0.885504 5.4434C0.835438 5.39334 0.807312 5.32543 0.807312 5.25463C0.807312 5.18383 0.835438 5.11592 0.885504 5.06586C0.935569 5.01579 1.00347 4.98767 1.07427 4.98767H1.62689C1.69769 4.98767 1.76559 5.01579 1.81566 5.06586C1.86572 5.11592 1.89385 5.18383 1.89385 5.25463C1.89385 5.32543 1.86572 5.39334 1.81566 5.4434C1.76559 5.49347 1.69769 5.52159 1.62689 5.52159ZM1.89385 3.89045C1.85806 3.89038 1.82266 3.88312 1.78973 3.8691L1.38395 3.69023C1.3517 3.67638 1.32249 3.65632 1.29799 3.63118C1.27349 3.60604 1.25418 3.57633 1.24117 3.54373C1.21488 3.47789 1.21583 3.40431 1.2438 3.33917C1.25764 3.30692 1.27771 3.27771 1.30285 3.25321C1.32798 3.22871 1.3577 3.20941 1.3903 3.19639C1.45613 3.17011 1.52971 3.17105 1.59485 3.19902L1.99796 3.37254C2.0583 3.39416 2.10884 3.43676 2.14036 3.49256C2.17188 3.54837 2.18227 3.61364 2.16964 3.67648C2.15701 3.73931 2.12219 3.7955 2.07156 3.83478C2.02093 3.87407 1.95785 3.89383 1.89385 3.89045ZM7.25713 1.57322H7.19839C7.16396 1.56565 7.13137 1.55133 7.1025 1.53109C7.07363 1.51086 7.04905 1.48511 7.03019 1.45532C7.01132 1.42554 6.99855 1.39231 6.99259 1.35756C6.98664 1.32281 6.98763 1.28723 6.9955 1.25286L7.10763 0.753642C7.11344 0.717791 7.12652 0.683505 7.14604 0.652881C7.16557 0.622256 7.19114 0.595939 7.22119 0.575538C7.25124 0.555137 7.28513 0.541083 7.3208 0.534234C7.35647 0.527385 7.39316 0.527887 7.42863 0.535708C7.4641 0.543529 7.4976 0.558505 7.52708 0.57972C7.55656 0.600934 7.5814 0.627941 7.60008 0.659088C7.61876 0.690234 7.63089 0.724866 7.63573 0.760862C7.64056 0.796859 7.638 0.833463 7.6282 0.868436L7.51608 1.36499C7.5028 1.42385 7.46998 1.47649 7.42295 1.5143C7.37592 1.55212 7.31747 1.57289 7.25713 1.57322ZM8.72542 2.53962C8.66396 2.53912 8.60455 2.51744 8.55723 2.47822C8.53 2.456 8.50743 2.42862 8.49081 2.39765C8.47419 2.36669 8.46385 2.33275 8.46037 2.29777C8.4569 2.2628 8.46037 2.22749 8.47058 2.19386C8.48078 2.16023 8.49753 2.12894 8.51986 2.1018L8.83487 1.73606C8.88346 1.69091 8.94711 1.66546 9.01343 1.66466C9.07976 1.66387 9.144 1.6878 9.19365 1.73178C9.24329 1.77576 9.27479 1.83665 9.282 1.90259C9.28921 1.96852 9.27162 2.03478 9.23265 2.08845L8.93365 2.45152C8.9075 2.48055 8.8753 2.50348 8.83932 2.51871C8.80334 2.53393 8.76446 2.54107 8.72542 2.53962ZM9.63576 3.97588C9.59296 3.97611 9.55072 3.96604 9.51262 3.94653C9.47453 3.92702 9.44168 3.89863 9.41685 3.86376C9.37659 3.80567 9.361 3.73398 9.37352 3.66442C9.38603 3.59486 9.42561 3.5331 9.48359 3.49268L9.88137 3.21237C9.93916 3.17752 10.008 3.16585 10.0741 3.17972C10.1401 3.19358 10.1984 3.23194 10.2374 3.28709C10.2763 3.34223 10.2928 3.41006 10.2837 3.47693C10.2747 3.54381 10.2406 3.60475 10.1884 3.64752L9.78793 3.92783C9.74397 3.96034 9.69042 3.97725 9.63576 3.97588ZM4.75302 1.41571C4.69955 1.41576 4.6473 1.39976 4.60303 1.36977C4.55877 1.33978 4.52453 1.2972 4.50474 1.24752L4.33923 0.833731C4.32301 0.770964 4.33019 0.704441 4.35942 0.646579C4.38866 0.588717 4.43795 0.543469 4.49809 0.51928C4.55824 0.495091 4.62513 0.493614 4.68629 0.515125C4.74744 0.536635 4.79868 0.579663 4.83044 0.636179L4.99595 1.04997C5.00896 1.08257 5.01541 1.11742 5.01493 1.15251C5.01445 1.18761 5.00706 1.22226 4.99317 1.2545C4.97929 1.28673 4.95918 1.31591 4.934 1.34037C4.90883 1.36483 4.87908 1.38408 4.84645 1.39702C4.81668 1.4088 4.78503 1.41513 4.75302 1.41571Z" fill="#F6C707"/>
</svg>
